<svg width="101" height="99" viewBox="0 0 101 99" fill="none" xmlns="http://www.w3.org/2000/svg">
<path d="M3 86.4615C3 91.7077 7.275 96 12.5 96H88.5C93.725 96 98 91.7077 98 86.4615V24.4615H76.1714C73.9294 12.2714 63.2822 3 50.5 3C37.7178 3 27.0706 12.2714 24.8286 24.4615H3V86.4615ZM50.5 7.76923C60.6531 7.76923 69.1556 14.9183 71.324 24.4615H29.676C31.8444 14.9183 40.3469 7.76923 50.5 7.76923ZM24.375 29.2308V43.5385H29.125V29.2308H71.875V43.5385H76.625V29.2308H93.25V86.4615C93.25 89.0918 91.1196 91.2308 88.5 91.2308H12.5C9.88037 91.2308 7.75 89.0918 7.75 86.4615V29.2308H24.375Z" fill="black" stroke="black" stroke-width="5"/>
</svg>
