<svg xmlns="http://www.w3.org/2000/svg" version="1.1" xmlns:xlink="http://www.w3.org/1999/xlink" width="261" height="261"><svg width="261" height="261" viewBox="0 0 261 261" fill="none" xmlns="http://www.w3.org/2000/svg">
<circle cx="130.5" cy="130.5" r="130.5" fill="black"></circle>
<path d="M60.266 153V107.56H69.354V150.376L62.698 144.808H89.194V153H60.266ZM107.793 153.768C104.593 153.768 102.054 152.701 100.177 150.568C98.2997 148.392 97.361 145.256 97.361 141.16V118.696H106.065V138.984C106.065 141.629 106.492 143.528 107.345 144.68C108.241 145.832 109.521 146.408 111.185 146.408C112.934 146.408 114.406 145.747 115.601 144.424C116.838 143.101 117.457 141.16 117.457 138.6V118.696H126.097V153H118.097L117.905 143.144L118.929 143.4C118.46 146.685 117.244 149.245 115.281 151.08C113.361 152.872 110.865 153.768 107.793 153.768ZM150.52 153.768C147.235 153.768 144.483 153.256 142.264 152.232C140.045 151.165 138.339 149.779 137.144 148.072C135.992 146.323 135.309 144.381 135.096 142.248L143.672 141.864C144.056 143.272 144.781 144.403 145.848 145.256C146.915 146.067 148.493 146.472 150.584 146.472C152.589 146.472 154.061 146.237 155 145.768C155.939 145.299 156.408 144.595 156.408 143.656C156.408 142.973 156.237 142.44 155.896 142.056C155.555 141.629 154.915 141.245 153.976 140.904C153.037 140.52 151.629 140.157 149.752 139.816C146.296 139.091 143.544 138.28 141.496 137.384C139.491 136.445 138.04 135.293 137.144 133.928C136.291 132.52 135.864 130.771 135.864 128.68C135.864 126.717 136.376 124.925 137.4 123.304C138.424 121.683 139.981 120.381 142.072 119.4C144.163 118.419 146.787 117.928 149.944 117.928C153.357 117.928 156.109 118.483 158.2 119.592C160.333 120.701 161.933 122.131 163 123.88C164.067 125.629 164.749 127.485 165.048 129.448L156.408 129.832C156.237 128.893 155.875 128.083 155.32 127.4C154.765 126.717 154.04 126.184 153.144 125.8C152.248 125.416 151.181 125.224 149.944 125.224C148.109 125.224 146.787 125.587 145.976 126.312C145.165 126.995 144.76 127.784 144.76 128.68C144.76 129.491 144.973 130.152 145.4 130.664C145.827 131.176 146.595 131.624 147.704 132.008C148.856 132.392 150.456 132.797 152.504 133.224C155.832 133.864 158.413 134.632 160.248 135.528C162.083 136.381 163.384 137.448 164.152 138.728C164.92 139.965 165.304 141.544 165.304 143.464C165.304 145.597 164.707 147.432 163.512 148.968C162.36 150.504 160.675 151.699 158.456 152.552C156.28 153.363 153.635 153.768 150.52 153.768ZM176.735 162.6V155.688H181.407C182.516 155.688 183.37 155.517 183.967 155.176C184.607 154.877 185.076 154.28 185.375 153.384L186.271 150.824H183.583L171.551 118.696H180.575L188.959 142.504L196.703 118.696H205.727L192.543 156.008C191.732 158.397 190.474 160.083 188.767 161.064C187.103 162.088 184.948 162.6 182.303 162.6H176.735Z" fill="white"></path>
</svg><style>@media (prefers-color-scheme: light) { :root { filter: none; } }
@media (prefers-color-scheme: dark) { :root { filter: none; } }
</style></svg>